<svg version="1.1" viewBox="0.0 0.0 960.0 720.0" fill="none" stroke="none" stroke-linecap="square" stroke-miterlimit="10" xmlns:xlink="http://www.w3.org/1999/xlink" xmlns="http://www.w3.org/2000/svg"><clipPath id="p.0"><path d="m0 0l960.0 0l0 720.0l-960.0 0l0 -720.0z" clip-rule="nonzero"/></clipPath><g clip-path="url(#p.0)"><path fill="#000000" fill-opacity="0.0" d="m0 0l960.0 0l0 720.0l-960.0 0z" fill-rule="evenodd"/><path fill="#ffffff" d="m254.4755 430.5885l-8.529541 -0.27920532l-12.546539 0.5583801l-22.831528 2.518219l-17.565155 3.0765991l-16.05745 3.9195862l-24.086182 6.990814l-20.074463 7.2700195l-24.840027 10.35199l-25.846916 12.585632l-42.152145 22.100006l-34.123413 18.73883l-36.131912 20.140198l-30.106413 15.382996l-35.130302 16.505249l-29.357834 11.184204l-23.833145 7.5545654l-23.585373 5.8740234l-19.573654 3.0765991l-15.050568 1.9544678l-19.325882 0.84295654l-25.34085 -0.55841064l-27.344055 -3.0765991l-35.884155 -7.8338013l-27.850128 -9.788208l-24.592285 -10.072815l-20.322205 -9.229797l-23.079315 -10.9104l-42.41046 -22.932251l-25.34082 -14.266174l-32.36795 -17.62204l-43.907593 -22.937622l-17.565186 -8.392181l-33.369568 -12.864838l-23.838379 -7.554596l-22.831543 -5.873993l-29.858643 -4.757202l-15.809692 -1.6752014l-13.295105 -0.56378174l-0.8803711 592.99524l966.1359 0z" fill-rule="evenodd"/><path fill="#ffffff" d="m1217.3749 430.2475l-9.278076 0.28457642l-12.54126 0.5583801l-22.820923 2.518219l-17.559937 3.0765991l-16.052124 3.9195862l-24.075684 6.990814l-20.063965 7.2700195l-24.829468 10.35199l-25.836304 12.585632l-42.136353 22.099976l-34.107605 18.738861l-36.11609 20.140198l-30.095886 15.382996l-35.114502 16.505249l-29.34729 11.184204l-23.82788 7.5545654l-23.57483 5.8740234l-19.56311 3.0765991l-15.050537 1.9544067l-19.315369 0.8430176l-25.330322 -0.55841064l-27.333496 -3.0765991l-35.868347 -7.8338013l-27.8396 -9.788208l-24.581726 -10.072815l-20.311646 -9.229797l-23.074036 -10.9104l-42.389374 -22.932251l-25.335571 -14.266174l-32.352142 -17.62204l-43.891785 -22.937622l-17.554596 -8.392212l-33.35904 -12.864807l-23.82785 -7.554596l-22.826263 -5.873993l-29.842834 -4.757202l-15.804413 -1.6752319l-12.462204 -1.0093994l0.92781067 592.3241l963.11523 1.1167603z" fill-rule="evenodd"/></g></svg>