<svg version="1.1" viewBox="0.0 0.0 960.0 720.0" fill="none" stroke="none" stroke-linecap="square" stroke-miterlimit="10" xmlns:xlink="http://www.w3.org/1999/xlink" xmlns="http://www.w3.org/2000/svg"><clipPath id="p.0"><path d="m0 0l960.0 0l0 720.0l-960.0 0l0 -720.0z" clip-rule="nonzero"/></clipPath><g clip-path="url(#p.0)"><path fill="#000000" fill-opacity="0.0" d="m0 0l960.0 0l0 720.0l-960.0 0z" fill-rule="evenodd"/><path fill="#37a48c" d="m-0.4593176 289.59842l4.2467194 0.13647461l6.246719 -0.27294922l11.367455 -1.2309875l8.745407 -1.5039368l7.994749 -1.9159851l11.992126 -3.417328l9.994751 -3.5538025l12.367455 -5.060364l12.868767 -6.152252l20.986877 -10.803146l16.989502 -9.160095l17.989494 -9.845154l14.989502 -7.519684l17.490814 -8.068237l14.616806 -5.4671936l11.866135 -3.6929169l11.742783 -2.8713837l9.745407 -1.5039368l7.4934387 -0.9553833l9.622055 -0.41207886l12.616791 0.27296448l13.614166 1.5039368l17.86615 3.8294067l13.86615 4.784775l12.24408 4.923889l10.118103 4.5118103l11.490814 5.3333282l21.115509 11.209976l12.616791 6.973755l16.115479 8.6141815l21.8609 11.212585l8.745392 4.102356l16.614197 6.288727l11.868744 3.6929016l11.367462 2.871399l14.86615 2.32547l7.871399 0.8188782l6.6194153 0.27560425l0.43832397 -289.87402l-481.02362 0z" fill-rule="evenodd"/><path fill="#37a48c" d="m479.6273 289.87402l4.6194153 -0.13912964l6.24411 -0.27294922l11.362213 -1.2309875l8.742767 -1.5039368l7.992157 -1.9159851l11.986877 -3.417328l9.989502 -3.5538025l12.362183 -5.060364l12.863525 -6.152252l20.979004 -10.803146l16.981628 -9.160095l17.981628 -9.845154l14.984253 -7.519684l17.48291 -8.068237l14.611572 -5.4671936l11.863525 -3.6929169l11.737488 -2.8713837l9.740173 -1.5039368l7.493469 -0.9553833l9.61676 -0.41207886l12.611572 0.27296448l13.608887 1.5039368l17.858276 3.8294067l13.860901 4.784775l12.238831 4.923889l10.112915 4.5118103l11.488159 5.3333282l21.10498 11.209976l12.614197 6.973755l16.107605 8.6141815l21.853027 11.212585l8.740112 4.102356l16.608948 6.288727l11.863525 3.6929016l11.364807 2.871399l14.858276 2.32547l7.8687744 0.8188782l6.204712 0.49343872l-0.46191406 -289.54593l-479.5197 -0.54593176z" fill-rule="evenodd"/></g></svg>