<?xml version="1.0" encoding="utf-8"?>
<!-- Generator: Adobe Illustrator 18.0.0, SVG Export Plug-In . SVG Version: 6.00 Build 0)  -->
<!DOCTYPE svg PUBLIC "-//W3C//DTD SVG 1.1//EN" "http://www.w3.org/Graphics/SVG/1.1/DTD/svg11.dtd">
<svg version="1.1" id="Layer_1" xmlns="http://www.w3.org/2000/svg" xmlns:xlink="http://www.w3.org/1999/xlink" x="0px" y="0px"
	 viewBox="0 0 72 72" enable-background="new 0 0 72 72" xml:space="preserve">
<path fill="#FFFFFF" d="M70.4,10.9L70.4,10.9L70.4,10.9c0.6-1,0.9-2.1,0.9-3.3c0-3.8-3.2-6.9-7.2-6.9c-2.3,0-4.3,1.1-5.6,2.7l0,0
	l0,0c-0.4,0.4-0.7,0.9-0.9,1.5l-29.9,47L13.9,35.8l0,0c-1.3-1.9-3.5-3.1-6-3.1c-4,0-7.2,3.1-7.2,6.9c0,1.9,0.8,3.7,2.2,4.9
	l18.3,23.6h0c1.3,1.9,3.5,3.2,6,3.2c3,0,5.6-1.8,6.6-4.3l36-55.3C70,11.5,70.2,11.2,70.4,10.9z"/>
</svg>
